<mxfile host="app.diagrams.net" modified="2024-01-31T01:45:13.896Z" agent="Mozilla/5.0 (Windows NT 10.0; Win64; x64) AppleWebKit/537.36 (KHTML, like Gecko) Chrome/120.0.0.0 Safari/537.36" version="23.0.2" etag="advKKtd4GW9Q0_woDqq6" type="github">
  <diagram name="Page-1" id="anzL-MSCVSkK8-eWURHf">
    <mxGraphModel>
      <root>
        <mxCell id="0" />
        <mxCell id="1" parent="0" />
      </root>
    </mxGraphModel>
  </diagram>
</mxfile>
